<svg width="60" height="60" viewBox="0 0 60 60" fill="none" xmlns="http://www.w3.org/2000/svg">
    <path d="M39.086 2H9.5a1 1 0 00-1 1v54a1 1 0 001 1h41a1 1 0 001-1V14.414a1 1 0 00-.293-.707L39.793 2.293A1 1 0 0039.086 2z" fill="#fff"></path>
    <path fill-rule="evenodd" clip-rule="evenodd" d="M7.5 3a2 2 0 012-2h29.586a2 2 0 011.414.586L51.914 13l-.707.707.707-.707a2 2 0 01.586 1.414V57a2 2 0 01-2 2h-41a2 2 0 01-2-2V3zm31.586 0H9.5v54h41V14.414L39.086 3z" fill="#647696"></path>
    <path fill-rule="evenodd" clip-rule="evenodd" d="M38.5 13V2h2v11h11v2h-11a2 2 0 01-2-2zM51.5 42h-43v-2h43v2z" fill="#647696"></path>
    <path d="M22.797 45.82a3.438 3.438 0 00-1.128-.615A4.067 4.067 0 0020.398 45H17.5v10.076h1.641v-3.637h1.217c.528 0 1.012-.077 1.449-.232a3.267 3.267 0 001.121-.656c.31-.282.551-.631.725-1.046.173-.415.26-.877.26-1.388 0-.483-.103-.918-.308-1.306a3.215 3.215 0 00-.808-.991zm-.622 3.329c-.101.278-.232.494-.396.649a1.499 1.499 0 01-.54.335 1.808 1.808 0 01-.595.103H19.14v-3.992h1.23c.419 0 .756.066 1.012.198.255.132.453.296.595.492.141.196.234.401.28.615a2.8 2.8 0 01.068.567c0 .411-.05.755-.15 1.033zM32.709 46.476a4.631 4.631 0 00-1.6-1.073c-.643-.268-1.388-.403-2.235-.403h-3.035v10.076h3.814c.127 0 .323-.016.588-.048.264-.032.556-.104.875-.219.319-.114.649-.285.99-.513.343-.228.65-.54.924-.937s.499-.889.677-1.477c.178-.588.267-1.297.267-2.126a5.06 5.06 0 00-.314-1.757 4.436 4.436 0 00-.951-1.523zm-1.196 6.33c-.492.711-1.294 1.066-2.406 1.066H27.48v-7.629h.957c.784 0 1.422.103 1.914.308.492.205.882.474 1.169.807.287.333.48.704.58 1.114.1.41.15.825.15 1.244 0 1.349-.245 2.38-.737 3.09zM36.353 55.076h1.668v-4.539h4.21v-1.121h-4.21v-3.172h4.634V45h-6.302v10.076zM38.428 24.961c-.919 0-2.047.12-3.358.358-1.83-1.942-3.74-4.778-5.088-7.562 1.337-5.629.668-6.426.373-6.802-.314-.4-.757-1.049-1.261-1.049-.211 0-.787.096-1.016.172-.576.192-.886.636-1.134 1.215-.707 1.653.263 4.471 1.261 6.643-.853 3.393-2.284 7.454-3.788 10.75-3.79 1.736-5.803 3.441-5.985 5.068-.066.592.074 1.461 1.115 2.242.285.213.619.326.967.326.875 0 1.759-.67 2.782-2.107.746-1.048 1.547-2.477 2.383-4.251 2.678-1.171 5.991-2.229 8.828-2.822 1.58 1.517 2.995 2.285 4.211 2.285.896 0 1.664-.412 2.22-1.191.579-.811.711-1.537.39-2.16-.385-.749-1.334-1.115-2.9-1.115zm-17.892 9.673c-.468-.359-.441-.601-.431-.692.062-.556.933-1.543 3.07-2.744-1.62 2.992-2.49 3.389-2.639 3.436zm8.2-22.922c.043-.014 1.045 1.101.096 3.216-1.426-1.459-.194-3.183-.096-3.216zm-2.067 16.026a71.291 71.291 0 002.674-7.564c1.123 2.018 2.472 3.976 3.822 5.544a49.812 49.812 0 00-6.496 2.02zm12.901-.479c-.308.431-.976.441-1.21.441-.533 0-.732-.317-1.547-.944a14.395 14.395 0 011.811-.108c.889 0 1.052.131 1.175.197-.022.071-.08.205-.229.414z" fill="#647696"></path>
</svg>